<svg width="115" height="30" viewBox="0 0 115 30" fill="none" xmlns="http://www.w3.org/2000/svg">
<g clip-path="url(#clip0_716_208)">
<path d="M15 0.406616H14.9992C6.93973 0.406616 0.40625 6.9401 0.40625 14.9996V15.0004C0.40625 23.0598 6.93973 29.5933 14.9992 29.5933H15C23.0595 29.5933 29.593 23.0598 29.593 15.0004V14.9996C29.593 6.9401 23.0595 0.406616 15 0.406616Z" fill="url(#paint0_linear_716_208)"/>
<path d="M12.8872 19.197L13.2077 19.1319C13.2974 19.1139 13.3782 19.0654 13.4362 18.9946C13.4942 18.9238 13.5259 18.8351 13.5259 18.7435C13.5259 18.652 13.4942 18.5633 13.4362 18.4925C13.3782 18.4217 13.2974 18.3732 13.2077 18.3552L12.8872 18.2901C12.4921 18.2099 12.1294 18.0152 11.8443 17.7301C11.5592 17.445 11.3644 17.0823 11.2842 16.6871L11.2192 16.3667C11.2012 16.2769 11.1527 16.1962 11.0819 16.1382C11.0111 16.0801 10.9224 16.0485 10.8308 16.0485C10.7393 16.0485 10.6506 16.0801 10.5798 16.1382C10.509 16.1962 10.4605 16.2769 10.4425 16.3667L10.3774 16.6871C10.2972 17.0823 10.1025 17.445 9.81737 17.7301C9.53228 18.0152 9.16953 18.2099 8.7744 18.2901L8.45397 18.3552C8.36422 18.3732 8.28347 18.4217 8.22545 18.4925C8.16744 18.5633 8.13574 18.652 8.13574 18.7435C8.13574 18.8351 8.16744 18.9238 8.22545 18.9946C8.28347 19.0654 8.36422 19.1139 8.45397 19.1319L8.7744 19.197C9.16953 19.2771 9.53228 19.4719 9.81737 19.757C10.1025 20.0421 10.2972 20.4048 10.3774 20.7999L10.4425 21.1204C10.4605 21.2101 10.509 21.2909 10.5798 21.3489C10.6506 21.4069 10.7393 21.4386 10.8308 21.4386C10.9224 21.4386 11.0111 21.4069 11.0819 21.3489C11.1527 21.2909 11.2012 21.2101 11.2192 21.1204L11.2842 20.7999C11.3644 20.4048 11.5592 20.0421 11.8443 19.757C12.1294 19.4719 12.4921 19.2771 12.8872 19.197Z" fill="white"/>
<path d="M20.654 13.3941L21.8333 13.155C21.951 13.1309 22.0568 13.0669 22.1327 12.9739C22.2087 12.8808 22.2502 12.7643 22.2502 12.6442C22.2502 12.5241 22.2087 12.4076 22.1327 12.3146C22.0568 12.2215 21.951 12.1575 21.8333 12.1335L20.654 11.8944C20.0859 11.7791 19.5643 11.499 19.1544 11.0891C18.7445 10.6792 18.4644 10.1576 18.3491 9.58948L18.11 8.4102C18.0864 8.29228 18.0226 8.18618 17.9296 8.10995C17.8365 8.03372 17.72 7.99207 17.5997 7.99207C17.4794 7.99207 17.3629 8.03372 17.2698 8.10995C17.1768 8.18618 17.113 8.29228 17.0894 8.4102L16.8502 9.58948C16.7351 10.1576 16.455 10.6793 16.0451 11.0892C15.6352 11.4991 15.1135 11.7792 14.5454 11.8944L13.3661 12.1335C13.2484 12.1575 13.1426 12.2215 13.0667 12.3146C12.9907 12.4076 12.9492 12.5241 12.9492 12.6442C12.9492 12.7643 12.9907 12.8808 13.0667 12.9739C13.1426 13.0669 13.2484 13.1309 13.3661 13.155L14.5454 13.3941C15.1135 13.5093 15.6352 13.7893 16.0451 14.1992C16.455 14.6092 16.7351 15.1308 16.8502 15.699L17.0894 16.8782C17.113 16.9962 17.1768 17.1022 17.2698 17.1785C17.3629 17.2547 17.4794 17.2964 17.5997 17.2964C17.72 17.2964 17.8365 17.2547 17.9296 17.1785C18.0226 17.1022 18.0864 16.9962 18.11 16.8782L18.3491 15.699C18.4644 15.1308 18.7445 14.6093 19.1544 14.1994C19.5643 13.7894 20.0859 13.5094 20.654 13.3941Z" fill="white"/>
</g>
<path d="M41.0977 22V12.46H43.2577V13.882C43.4737 13.462 43.8217 13.084 44.3017 12.748C44.7937 12.412 45.3577 12.244 45.9937 12.244C46.7617 12.244 47.3617 12.4 47.7937 12.712C48.2377 13.024 48.5497 13.438 48.7297 13.954C48.9937 13.45 49.3717 13.042 49.8637 12.73C50.3677 12.406 50.9617 12.244 51.6457 12.244C52.6537 12.244 53.4217 12.538 53.9497 13.126C54.4897 13.714 54.7597 14.602 54.7597 15.79V22H52.3837V16.33C52.3837 15.574 52.2577 15.04 52.0057 14.728C51.7657 14.416 51.3757 14.26 50.8357 14.26C50.5237 14.26 50.2357 14.344 49.9717 14.512C49.7077 14.668 49.4917 14.902 49.3237 15.214C49.1677 15.526 49.0897 15.898 49.0897 16.33V22H46.7317V16.33C46.7317 15.574 46.6057 15.04 46.3537 14.728C46.1137 14.416 45.7237 14.26 45.1837 14.26C44.8717 14.26 44.5777 14.344 44.3017 14.512C44.0377 14.668 43.8277 14.902 43.6717 15.214C43.5277 15.526 43.4557 15.898 43.4557 16.33V22H41.0977Z" fill="black"/>
<path d="M59.1517 22.216C58.4677 22.216 57.8857 22.09 57.4057 21.838C56.9257 21.574 56.5597 21.214 56.3077 20.758C56.0557 20.302 55.9297 19.786 55.9297 19.21C55.9297 18.25 56.2117 17.53 56.7757 17.05C57.3517 16.57 58.2097 16.33 59.3497 16.33H62.1937V15.88C62.1937 15.256 62.0497 14.818 61.7617 14.566C61.4857 14.314 61.0417 14.188 60.4297 14.188C59.8897 14.188 59.4997 14.284 59.2597 14.476C59.0197 14.656 58.8817 14.884 58.8457 15.16H56.4697C56.5057 14.608 56.6797 14.116 56.9917 13.684C57.3157 13.24 57.7717 12.892 58.3597 12.64C58.9597 12.376 59.6797 12.244 60.5197 12.244C61.3357 12.244 62.0437 12.364 62.6437 12.604C63.2557 12.844 63.7297 13.234 64.0657 13.774C64.4017 14.302 64.5697 15.016 64.5697 15.916V19.57C64.5697 20.074 64.5757 20.518 64.5877 20.902C64.6117 21.274 64.6477 21.64 64.6957 22H62.4817C62.4337 21.736 62.4037 21.538 62.3917 21.406C62.3917 21.262 62.3917 21.052 62.3917 20.776C62.1397 21.16 61.7437 21.496 61.2037 21.784C60.6637 22.072 59.9797 22.216 59.1517 22.216ZM59.8897 20.38C60.2737 20.38 60.6397 20.314 60.9877 20.182C61.3477 20.038 61.6357 19.822 61.8517 19.534C62.0797 19.234 62.1937 18.856 62.1937 18.4V17.95H59.7997C59.3437 17.95 58.9837 18.058 58.7197 18.274C58.4677 18.478 58.3417 18.76 58.3417 19.12C58.3417 19.504 58.4737 19.81 58.7377 20.038C59.0017 20.266 59.3857 20.38 59.8897 20.38Z" fill="black"/>
<path d="M70.2432 25.816C69.2352 25.816 68.4312 25.69 67.8312 25.438C67.2312 25.198 66.7872 24.862 66.4992 24.43C66.2232 23.998 66.0612 23.488 66.0132 22.9H68.4252C68.4972 23.152 68.6592 23.386 68.9112 23.602C69.1632 23.83 69.6072 23.944 70.2432 23.944C71.0472 23.944 71.6472 23.752 72.0432 23.368C72.4392 22.984 72.6372 22.408 72.6372 21.64V20.488C72.3372 20.956 71.9352 21.334 71.4312 21.622C70.9272 21.898 70.3512 22.036 69.7032 22.036C68.8752 22.036 68.1552 21.856 67.5432 21.496C66.9432 21.136 66.4752 20.602 66.1392 19.894C65.8152 19.174 65.6532 18.286 65.6532 17.23V16.87C65.6532 15.874 65.8152 15.034 66.1392 14.35C66.4752 13.666 66.9492 13.144 67.5612 12.784C68.1732 12.424 68.8872 12.244 69.7032 12.244C70.4952 12.244 71.1492 12.406 71.6652 12.73C72.1812 13.054 72.5592 13.432 72.7992 13.864V12.46H74.9952V21.46C74.9952 22.876 74.6052 23.956 73.8252 24.7C73.0452 25.444 71.8512 25.816 70.2432 25.816ZM70.2612 20.02C70.7412 20.02 71.1552 19.936 71.5032 19.768C71.8632 19.588 72.1392 19.312 72.3312 18.94C72.5352 18.568 72.6372 18.118 72.6372 17.59V16.51C72.6372 16.006 72.5352 15.592 72.3312 15.268C72.1272 14.944 71.8452 14.698 71.4852 14.53C71.1252 14.35 70.7172 14.26 70.2612 14.26C69.6132 14.26 69.0852 14.482 68.6772 14.926C68.2692 15.358 68.0652 16.006 68.0652 16.87V17.23C68.0652 18.154 68.2752 18.85 68.6952 19.318C69.1152 19.786 69.6372 20.02 70.2612 20.02Z" fill="black"/>
<path d="M76.8354 22V12.46H79.1934V22H76.8354ZM78.0054 11.542C77.5854 11.542 77.2374 11.41 76.9614 11.146C76.6974 10.882 76.5654 10.54 76.5654 10.12C76.5654 9.7 76.6974 9.358 76.9614 9.094C77.2374 8.83 77.5794 8.698 77.9874 8.698C78.4194 8.698 78.7674 8.83 79.0314 9.094C79.3074 9.358 79.4454 9.7 79.4454 10.12C79.4454 10.54 79.3074 10.882 79.0314 11.146C78.7674 11.41 78.4254 11.542 78.0054 11.542Z" fill="black"/>
<path d="M85.2141 22.216C84.3381 22.216 83.5461 22.036 82.8381 21.676C82.1301 21.304 81.5661 20.758 81.1461 20.038C80.7381 19.306 80.5341 18.4 80.5341 17.32V16.96C80.5341 15.928 80.7501 15.064 81.1821 14.368C81.6141 13.672 82.1841 13.144 82.8921 12.784C83.6001 12.424 84.3741 12.244 85.2141 12.244C86.1141 12.244 86.8761 12.394 87.5001 12.694C88.1241 12.994 88.6041 13.408 88.9401 13.936C89.2881 14.464 89.4861 15.046 89.5341 15.682H87.1221C87.0261 15.25 86.8281 14.908 86.5281 14.656C86.2401 14.392 85.8021 14.26 85.2141 14.26C84.8061 14.26 84.4281 14.356 84.0801 14.548C83.7441 14.74 83.4681 15.034 83.2521 15.43C83.0481 15.826 82.9461 16.336 82.9461 16.96V17.32C82.9461 17.992 83.0421 18.544 83.2341 18.976C83.4381 19.396 83.7081 19.708 84.0441 19.912C84.3921 20.104 84.7821 20.2 85.2141 20.2C85.6821 20.2 86.0841 20.08 86.4201 19.84C86.7681 19.588 87.0021 19.234 87.1221 18.778H89.5341C89.4621 19.462 89.2341 20.068 88.8501 20.596C88.4661 21.124 87.9561 21.526 87.3201 21.802C86.6961 22.078 85.9941 22.216 85.2141 22.216Z" fill="black"/>
<path d="M89.7043 22L94.3843 9.4H97.0663L101.764 22H98.9203L97.9483 19.426H93.2863L92.3323 22H89.7043ZM94.1143 17.194H97.1383L95.6263 12.82L94.1143 17.194Z" fill="black"/>
<path d="M103.032 22V9.4H105.714V22H103.032Z" fill="black"/>
<defs>
<linearGradient id="paint0_linear_716_208" x1="29.593" y1="15" x2="0.0851957" y2="11.7602" gradientUnits="userSpaceOnUse">
<stop stop-color="#8D65E9"/>
<stop offset="0.483" stop-color="#5391E4"/>
<stop offset="1" stop-color="#6BCD94"/>
</linearGradient>
<clipPath id="clip0_716_208">
<rect width="30" height="30" fill="white"/>
</clipPath>
</defs>
</svg>
